<svg xmlns="http://www.w3.org/2000/svg" width="141.464" height="36" viewBox="0 0 141.464 36"><g fill="#eb1d5a" color="#eb1d5a" transform="translate(0 6) scale(0.3)"><svg width="70" height="80" x="0" y="0" viewBox="0 0 70 80"><path d="M24.6,71.4c-5.4-0.2-8.1-0.3-13.6-0.7c-0.7,0-1.2-0.6-1.3-1.3c-1.1-19.7-1.1-39.5,0-59.2c0-0.7,0.6-1.2,1.3-1.3 c16.1-1.2,32.3-1.2,48.4,0c0.7,0.1,1.2,0.6,1.3,1.3c0.6,10,0.9,20.1,0.8,30.1c0,0,0,0.8,0.5,1.5c1.5,1.5,2.3,2.2,3.8,3.7 c1.4,1.3,1.2-0.8,1.2-0.8c0.2-12.7-0.3-25.5-1.3-38.2c-0.1-1.3-1.2-2.5-2.4-2.6C44.1,2.4,25.6,2.4,6.4,4C5.2,4.1,4.2,5.3,4.1,6.6 C2.6,28.8,2.6,50.7,4,73c0.1,1.3,1.2,2.5,2.4,2.6c9.1,1,13.6,1.3,22.7,1.5c0,0,2.6,0.1,1.1-1.5c-1.3-1.3-1.9-2-3.2-3.3 C27.1,72.3,26.3,71.5,24.6,71.4z"/><path d="M26.9,65.9c-0.6-0.6-0.6-1.7,0-2.3c1.6-1.6,2.3-2.4,3.9-4c0.6-0.6,1.6-0.6,2.2,0c2.6,2.6,3.9,3.9,6.4,6.5 c0.6,0.6,1.6,0.6,2.2,0c0,0,14.8-15.9,18-18.1c0.7-0.5,1.7-0.6,2.3-0.1c1.6,1.5,2.4,2.2,3.9,3.7c0.6,0.6,0.6,1.5-0.1,2.2 C58.3,61.1,51,68.5,43.9,76c-1.9,1.6-5.4,1.7-7,0.1C33,72.1,31,70,26.9,65.9z"/><path d="M55,20.7c0,0.7-0.5,1.2-1.2,1.2c-12.6-0.4-25.3-0.4-37.9,0c-0.7,0-1.2-0.5-1.2-1.2c0-1,0-1.5,0.1-2.4c0-0.7,0.6-1.2,1.3-1.3 c12.5-0.5,25.1-0.5,37.6,0c0.7,0,1.2,0.6,1.3,1.3C55,19.3,55,19.8,55,20.7z"/><path d="M55.2,32.2c0,0.7-0.5,1.2-1.2,1.2c-12.8-0.1-25.5-0.1-38.3,0c-0.7,0-1.2-0.5-1.2-1.2c0-1,0-1.5,0-2.4c0-0.7,0.6-1.2,1.2-1.2 c12.7-0.3,25.4-0.3,38.2,0c0.7,0,1.2,0.6,1.2,1.2C55.2,30.8,55.2,31.3,55.2,32.2z"/><path d="M55.3,43.7c0,0.7-0.6,1.2-1.2,1.2c-12.8,0.1-25.5,0.1-38.3,0c-0.7,0-1.2-0.6-1.2-1.2c0-1,0-1.5,0-2.4c0-0.7,0.6-1.2,1.2-1.2 c12.8,0,25.6,0,38.3,0c0.7,0,1.2,0.5,1.2,1.2C55.3,42.3,55.3,42.8,55.3,43.7z"/></svg></g><path fill="#40465d" fill-rule="nonzero" d="M16.13 5.14L10.73 5.14L10.73 17.42L5.42 17.42L5.42 5.14L0 5.14L0 0.91L16.13 0.91L16.13 5.14ZM23.26 4.46Q26.16 4.46 27.98 5.44Q29.81 6.41 29.81 8.59L29.81 8.59L29.81 13.54Q29.81 13.94 30 14.21Q30.19 14.47 30.58 14.47L30.58 14.47L31.44 14.47L31.44 17.23Q31.37 17.28 31.07 17.39Q30.77 17.50 30.22 17.60Q29.66 17.71 28.94 17.71L28.94 17.71Q27.55 17.71 26.65 17.29Q25.75 16.87 25.42 16.13L25.42 16.13Q24.50 16.85 23.38 17.28Q22.25 17.71 20.74 17.71L20.74 17.71Q16.27 17.71 16.27 14.16L16.27 14.16Q16.27 12.31 17.27 11.34Q18.26 10.37 20.14 10.01Q22.01 9.65 25.03 9.65L25.03 9.65L25.03 9.02Q25.03 8.28 24.52 7.90Q24 7.51 23.18 7.51L23.18 7.51Q22.44 7.51 21.90 7.78Q21.36 8.04 21.36 8.62L21.36 8.62L21.36 8.71L16.66 8.71Q16.63 8.59 16.63 8.38L16.63 8.38Q16.63 6.58 18.35 5.52Q20.06 4.46 23.26 4.46L23.26 4.46ZM25.03 11.90Q22.99 11.90 22.02 12.35Q21.05 12.79 21.05 13.54L21.05 13.54Q21.05 14.74 22.68 14.74L22.68 14.74Q23.62 14.74 24.32 14.23Q25.03 13.73 25.03 12.98L25.03 12.98L25.03 11.90ZM39.02 4.46Q41.57 4.46 43.33 5.46Q45.10 6.46 45.10 8.54L45.10 8.54L40.66 8.54Q40.66 7.85 40.03 7.56L40.03 7.56Q39.60 7.32 38.95 7.32L38.95 7.32Q37.22 7.32 37.22 8.14L37.22 8.14Q37.22 8.59 37.82 8.78Q38.42 8.98 39.79 9.19L39.79 9.19Q41.47 9.43 42.60 9.76Q43.73 10.08 44.57 10.91Q45.41 11.74 45.41 13.22L45.41 13.22Q45.41 15.65 43.60 16.68Q41.78 17.71 38.86 17.71L38.86 17.71Q37.18 17.71 35.69 17.24Q34.20 16.78 33.26 15.79Q32.33 14.81 32.33 13.30L32.33 13.30L36.77 13.30L36.77 13.39Q36.79 14.21 37.45 14.53Q38.11 14.86 38.86 14.86L38.86 14.86Q40.85 14.86 40.85 13.92L40.85 13.92Q40.85 13.44 40.22 13.22Q39.60 13.01 38.18 12.77L38.18 12.77Q36.48 12.48 35.39 12.14Q34.30 11.81 33.48 11.00Q32.66 10.20 32.66 8.76L32.66 8.76Q32.66 6.43 34.43 5.45Q36.19 4.46 39.02 4.46L39.02 4.46ZM52.44 9.60L56.50 4.75L62.06 4.75L57.38 9.86L62.18 17.42L56.76 17.42L54.10 13.08L52.44 14.69L52.44 17.42L47.66 17.42L47.66 0L52.44 0L52.44 9.60ZM80.69 17.42L75.07 17.42L74.38 15.10L68.59 15.10L67.90 17.42L62.47 17.42L68.50 0.91L74.66 0.91L80.69 17.42ZM71.45 5.52L69.70 11.40L73.27 11.40L71.54 5.52L71.45 5.52ZM91.10 4.46Q93.67 4.46 95.06 6.14Q96.46 7.82 96.46 11.11L96.46 11.11Q96.46 14.38 95.06 16.04Q93.67 17.71 91.10 17.71L91.10 17.71Q88.90 17.71 87.55 16.27L87.55 16.27L87.55 22.15L82.78 22.15L82.78 4.75L86.66 4.75L87.07 6.55Q88.46 4.46 91.10 4.46L91.10 4.46ZM89.62 7.99Q88.56 7.99 88.03 8.74Q87.50 9.48 87.50 10.68L87.50 10.68L87.50 11.47Q87.50 12.67 88.03 13.43Q88.56 14.18 89.62 14.18L89.62 14.18Q91.68 14.18 91.68 11.71L91.68 11.71L91.68 10.44Q91.68 7.99 89.62 7.99L89.62 7.99ZM107.11 4.46Q109.68 4.46 111.07 6.14Q112.46 7.82 112.46 11.11L112.46 11.11Q112.46 14.38 111.07 16.04Q109.68 17.71 107.11 17.71L107.11 17.71Q104.90 17.71 103.56 16.27L103.56 16.27L103.56 22.15L98.78 22.15L98.78 4.75L102.67 4.75L103.08 6.55Q104.47 4.46 107.11 4.46L107.11 4.46ZM105.62 7.99Q104.57 7.99 104.04 8.74Q103.51 9.48 103.51 10.68L103.51 10.68L103.51 11.47Q103.51 12.67 104.04 13.43Q104.57 14.18 105.62 14.18L105.62 14.18Q107.69 14.18 107.69 11.71L107.69 11.71L107.69 10.44Q107.69 7.99 105.62 7.99L105.62 7.99Z" transform="translate(29, 9.288)"/></svg>